<?xml version="1.0" encoding="UTF-8"?>
<svg id="Layer_1" data-name="Layer 1" xmlns="http://www.w3.org/2000/svg" viewBox="0 0 200 200">
  <defs>
    <style>
      .cls-1 {
        fill: #216d8d;
      }
    </style>
  </defs>
  <path class="cls-1" d="M0,94.28v-3.61c.34-2.69.81-5.26,1.85-7.89,2.47-6.23,7.16-11.1,13.1-13.93,3.64-1.73,7.39-2.36,11.46-2.21,10.16.38,19.23,6.98,22.9,16.68h13.62c3.18-8.43,8.72-15.39,16.02-20.41-6.01-4.96-9.92-12.11-10.42-19.96-.21-3.34-.01-6.47.85-9.62,2.91-10.68,11.95-18.48,22.73-19.44,8.49-.76,16.43,2.27,22.15,8.62,9.71,10.78,9.19,26.92-.55,37.37.1.49.5.9.96,1.12,5.93,2.77,11.25,7,15.33,12.19.83.37,1.73-.05,2.54-.42l16.31-7.52c-.63-10.4,4.71-20.26,13.78-24.98,6.9-3.59,14.9-3.72,21.97-.46,8.35,3.85,14.18,12,15.24,21.33.23,2.04.17,3.85,0,5.84-.7,8.04-5.36,15.23-11.57,19.23-7.33,4.72-16.04,5.32-23.64,1.98-2.22-.98-4.1-2.01-5.88-3.57-.47-.41-1.14-1.1-2.01-.7l-12.18,5.67-6.31,2.89c1.28,11.95-1.42,21.45-8.54,30.7l9.67,9.9c6.33-2.01,13.16-2.04,19.25.59,11.41,4.91,18.34,16.22,17.09,29.03-1.03,10.54-8.11,19.27-17.93,22.35-2.69.85-5.22,1.13-8.04,1.18-4.51.08-8.71-.82-12.76-2.98-12.99-6.91-18.77-22.87-12.25-36.78l-11.5-11.66c-5.52,1.8-9.61,2.54-15.28,2.27-18.34-.9-34.31-15.33-36.93-34.15l-10.78-.03c-.68,0-1.11.4-1.36.99-5.68,13.31-21.71,18.63-34.28,12.38-7.55-3.76-12.84-10.89-14.25-19.37-.16-.95-.04-1.84-.36-2.61ZM108.86,40.62c0-7.92-6.26-14.35-13.98-14.35s-13.98,6.42-13.98,14.35,6.26,14.35,13.98,14.35,13.98-6.42,13.98-14.35ZM188.08,64.1c0-7.8-6.16-14.12-13.76-14.12s-13.76,6.32-13.76,14.12,6.16,14.12,13.76,14.12,13.76-6.32,13.76-14.12ZM125.76,97.75c0-14.74-11.64-26.69-26.01-26.69s-26.01,11.95-26.01,26.69,11.64,26.69,26.01,26.69,26.01-11.95,26.01-26.69ZM39.6,92.97c0-7.9-6.24-14.3-13.93-14.3s-13.93,6.4-13.93,14.3,6.24,14.3,13.93,14.3,13.93-6.4,13.93-14.3ZM163.95,159.08c0-8.5-6.72-15.39-15-15.39s-15,6.89-15,15.39,6.72,15.39,15,15.39,15-6.89,15-15.39Z"/>
</svg>