<?xml version="1.0" encoding="UTF-8"?>
<svg id="Layer_1" data-name="Layer 1" xmlns="http://www.w3.org/2000/svg" xmlns:xlink="http://www.w3.org/1999/xlink" viewBox="0 0 299 163">
  <defs>
    <style>
      .cls-1 {
        fill: none;
      }

      .cls-2 {
        fill: url(#linear-gradient-8);
      }

      .cls-3 {
        fill: url(#linear-gradient-7);
      }

      .cls-4 {
        fill: url(#linear-gradient-5);
      }

      .cls-5 {
        fill: url(#linear-gradient-6);
      }

      .cls-6 {
        fill: url(#linear-gradient-9);
      }

      .cls-7 {
        fill: url(#linear-gradient-4);
      }

      .cls-8 {
        fill: url(#linear-gradient-3);
      }

      .cls-9 {
        fill: url(#linear-gradient-2);
      }

      .cls-10 {
        fill-rule: evenodd;
      }

      .cls-10, .cls-11 {
        fill: #1e7699;
      }

      .cls-12 {
        fill: url(#linear-gradient);
      }

      .cls-13 {
        fill: url(#linear-gradient-10);
      }

      .cls-14 {
        fill: url(#linear-gradient-11);
      }

      .cls-15 {
        fill: url(#linear-gradient-12);
      }

      .cls-16 {
        fill: url(#linear-gradient-13);
      }

      .cls-17 {
        fill: url(#linear-gradient-14);
      }

      .cls-18 {
        fill: url(#linear-gradient-15);
      }

      .cls-19 {
        fill: #32c5ff;
      }
    </style>
    <linearGradient id="linear-gradient" x1="-3.13" y1="68.63" x2="298.08" y2="68.63" gradientTransform="translate(0 172) scale(1 -1)" gradientUnits="userSpaceOnUse">
      <stop offset="0" stop-color="#1c6c8c"/>
      <stop offset="1" stop-color="#104667"/>
    </linearGradient>
    <linearGradient id="linear-gradient-2" x1="-3.13" y1="63.9" x2="298.08" y2="63.9" gradientTransform="translate(0 172) scale(1 -1)" gradientUnits="userSpaceOnUse">
      <stop offset="0" stop-color="#1c6c8c"/>
      <stop offset="1" stop-color="#104667"/>
    </linearGradient>
    <linearGradient id="linear-gradient-3" x1="-3.13" y1="68.86" x2="298.08" y2="68.86" gradientTransform="translate(0 172) scale(1 -1)" gradientUnits="userSpaceOnUse">
      <stop offset="0" stop-color="#1c6c8c"/>
      <stop offset="1" stop-color="#104667"/>
    </linearGradient>
    <linearGradient id="linear-gradient-4" x1="-3.13" y1="64.31" x2="298.08" y2="64.31" gradientTransform="translate(0 172) scale(1 -1)" gradientUnits="userSpaceOnUse">
      <stop offset="0" stop-color="#1c6c8c"/>
      <stop offset="1" stop-color="#104667"/>
    </linearGradient>
    <linearGradient id="linear-gradient-5" x1="-3.13" y1="63.98" x2="298.08" y2="63.98" gradientTransform="translate(0 172) scale(1 -1)" gradientUnits="userSpaceOnUse">
      <stop offset="0" stop-color="#1c6c8c"/>
      <stop offset="1" stop-color="#104667"/>
    </linearGradient>
    <linearGradient id="linear-gradient-6" x1="-3.13" y1="68.56" x2="298.08" y2="68.56" gradientTransform="translate(0 172) scale(1 -1)" gradientUnits="userSpaceOnUse">
      <stop offset="0" stop-color="#1c6c8c"/>
      <stop offset="1" stop-color="#104667"/>
    </linearGradient>
    <linearGradient id="linear-gradient-7" x1="-3.13" y1="64.31" x2="298.08" y2="64.31" gradientTransform="translate(0 172) scale(1 -1)" gradientUnits="userSpaceOnUse">
      <stop offset="0" stop-color="#1c6c8c"/>
      <stop offset="1" stop-color="#104667"/>
    </linearGradient>
    <linearGradient id="linear-gradient-8" x1="-3.13" y1="68.86" x2="298.08" y2="68.86" gradientTransform="translate(0 172) scale(1 -1)" gradientUnits="userSpaceOnUse">
      <stop offset="0" stop-color="#1c6c8c"/>
      <stop offset="1" stop-color="#104667"/>
    </linearGradient>
    <linearGradient id="linear-gradient-9" x1="104" y1="23" x2="42" y2="23" gradientTransform="translate(0 172) scale(1 -1)" gradientUnits="userSpaceOnUse">
      <stop offset="0" stop-color="#d8f2fc"/>
      <stop offset="1" stop-color="#fcfdfc"/>
    </linearGradient>
    <linearGradient id="linear-gradient-10" x1="104" y1="23" x2="42" y2="23" gradientTransform="translate(0 172) scale(1 -1)" gradientUnits="userSpaceOnUse">
      <stop offset="0" stop-color="#1e7699"/>
      <stop offset="1" stop-color="#32c5ff"/>
    </linearGradient>
    <linearGradient id="linear-gradient-11" x1="87.43" y1="36.09" x2="87.43" y2="8.7" gradientTransform="translate(0 172) scale(1 -1)" gradientUnits="userSpaceOnUse">
      <stop offset="0" stop-color="#1c6c8c"/>
      <stop offset="1" stop-color="#32c5ff"/>
    </linearGradient>
    <linearGradient id="linear-gradient-12" x1="78.18" y1="36.09" x2="78.18" y2="8.7" gradientTransform="translate(0 172) scale(1 -1)" gradientUnits="userSpaceOnUse">
      <stop offset="0" stop-color="#1c6c8c"/>
      <stop offset="1" stop-color="#32c5ff"/>
    </linearGradient>
    <linearGradient id="linear-gradient-13" x1="69.04" y1="36.09" x2="69.04" y2="8.7" gradientTransform="translate(0 172) scale(1 -1)" gradientUnits="userSpaceOnUse">
      <stop offset="0" stop-color="#1c6c8c"/>
      <stop offset="1" stop-color="#32c5ff"/>
    </linearGradient>
    <linearGradient id="linear-gradient-14" x1="59.21" y1="36.09" x2="59.21" y2="8.7" gradientTransform="translate(0 172) scale(1 -1)" gradientUnits="userSpaceOnUse">
      <stop offset="0" stop-color="#1c6c8c"/>
      <stop offset="1" stop-color="#32c5ff"/>
    </linearGradient>
    <linearGradient id="linear-gradient-15" x1="199.87" y1="96.08" x2="281.6" y2="38.86" gradientUnits="userSpaceOnUse">
      <stop offset=".02" stop-color="#214e6f"/>
      <stop offset=".15" stop-color="#215576"/>
      <stop offset=".35" stop-color="#23688c"/>
      <stop offset=".6" stop-color="#2587b0"/>
      <stop offset=".88" stop-color="#29b2e1"/>
      <stop offset="1" stop-color="#2bc8f9"/>
    </linearGradient>
  </defs>
  <path class="cls-12" d="M202.28,122.22v-38.17h7.94v14.35h.24c.35-.77.85-1.55,1.51-2.35.67-.81,1.54-1.48,2.61-2.01,1.08-.55,2.42-.82,4.03-.82,2.09,0,4.01.55,5.78,1.64,1.76,1.08,3.17,2.71,4.23,4.9,1.06,2.18,1.58,4.9,1.58,8.18s-.52,5.89-1.55,8.09c-1.02,2.19-2.41,3.85-4.18,4.98-1.75,1.12-3.71,1.68-5.89,1.68-1.54,0-2.85-.26-3.93-.76-1.07-.51-1.95-1.15-2.63-1.92-.68-.78-1.21-1.57-1.57-2.37h-.35v4.58h-7.83ZM210.05,107.91c0,1.7.24,3.19.71,4.46.47,1.27,1.15,2.26,2.05,2.96.89.7,1.98,1.04,3.26,1.04s2.39-.35,3.28-1.06c.89-.72,1.57-1.71,2.03-2.98.47-1.28.71-2.75.71-4.42s-.23-3.11-.69-4.36c-.46-1.25-1.14-2.24-2.03-2.94-.89-.71-1.99-1.06-3.3-1.06s-2.39.34-3.28,1.03c-.88.68-1.56,1.65-2.03,2.91-.47,1.25-.71,2.73-.71,4.44Z"/>
  <path class="cls-9" d="M189.41,110.03v-16.44h7.94v28.63h-7.62v-5.2h-.3c-.65,1.68-1.72,3.02-3.22,4.04-1.49,1.02-3.31,1.53-5.46,1.53-1.91,0-3.6-.43-5.05-1.31s-2.59-2.11-3.41-3.71c-.81-1.6-1.22-3.52-1.23-5.76v-18.23h7.94v16.81c.01,1.69.47,3.03,1.36,4.01.89.98,2.09,1.47,3.6,1.47.96,0,1.85-.22,2.68-.65.83-.45,1.5-1.11,2.01-1.98.52-.87.78-1.94.76-3.22Z"/>
  <path class="cls-8" d="M133.62,122.22v-38.17h8.07v15.75h16.38v-15.75h8.05v38.17h-8.05v-15.77h-16.38v15.77h-8.07Z"/>
  <path class="cls-7" d="M116.38,122.22v-28.63h4.25v4.32h.3c.52-1.42,1.47-2.57,2.83-3.45,1.37-.88,2.91-1.32,4.62-1.32.32,0,.73,0,1.21.02.48.01.85.03,1.1.06v4.47c-.15-.04-.49-.09-1.03-.17-.52-.09-1.07-.13-1.66-.13-1.39,0-2.63.29-3.73.88-1.08.57-1.94,1.37-2.57,2.39-.62,1.01-.93,2.16-.93,3.45v18.12h-4.4Z"/>
  <path class="cls-4" d="M99.41,122.82c-2.76,0-5.14-.61-7.14-1.83-1.99-1.23-3.52-2.94-4.6-5.14-1.07-2.21-1.6-4.78-1.6-7.72s.53-5.52,1.6-7.75c1.08-2.25,2.58-4,4.51-5.26,1.94-1.27,4.2-1.9,6.78-1.9,1.49,0,2.96.25,4.42.75,1.45.5,2.78,1.3,3.97,2.42,1.19,1.11,2.14,2.57,2.85,4.4.71,1.83,1.06,4.08,1.06,6.75v1.86h-22.07v-3.8h17.59c0-1.62-.32-3.06-.97-4.32-.63-1.27-1.54-2.27-2.72-3-1.17-.73-2.55-1.1-4.14-1.1-1.75,0-3.27.43-4.55,1.3-1.27.86-2.24,1.98-2.93,3.36-.68,1.38-1.03,2.86-1.03,4.44v2.53c0,2.16.37,4,1.12,5.5.76,1.49,1.81,2.63,3.15,3.41,1.34.77,2.9,1.16,4.68,1.16,1.16,0,2.2-.16,3.13-.49.94-.33,1.76-.83,2.44-1.49.68-.67,1.21-1.5,1.58-2.5l4.25,1.19c-.45,1.44-1.2,2.71-2.25,3.8-1.06,1.08-2.36,1.93-3.91,2.53-1.55.6-3.3.89-5.24.89Z"/>
  <path class="cls-5" d="M67.19,122.82c-2.39,0-4.49-.6-6.32-1.81-1.83-1.22-3.26-2.93-4.29-5.14-1.03-2.22-1.55-4.85-1.55-7.88s.52-5.62,1.55-7.83c1.03-2.21,2.47-3.92,4.31-5.13,1.84-1.21,3.96-1.81,6.37-1.81,1.86,0,3.34.31,4.42.93,1.09.61,1.93,1.3,2.5,2.09.58.77,1.04,1.4,1.36,1.9h.37v-14.09h4.4v38.17h-4.25v-4.4h-.52c-.32.52-.78,1.18-1.38,1.98-.6.78-1.45,1.49-2.55,2.11-1.11.61-2.58.91-4.42.91ZM67.79,118.87c1.76,0,3.26-.46,4.47-1.38,1.22-.93,2.14-2.22,2.78-3.86.63-1.65.95-3.56.95-5.72s-.31-4.01-.93-5.61c-.62-1.62-1.54-2.87-2.76-3.77-1.22-.91-2.72-1.36-4.51-1.36s-3.42.48-4.66,1.44c-1.23.94-2.16,2.23-2.78,3.86-.61,1.61-.91,3.43-.91,5.44s.31,3.89.93,5.55c.63,1.65,1.57,2.97,2.8,3.95,1.24.97,2.78,1.45,4.62,1.45Z"/>
  <path class="cls-3" d="M39.3,122.22v-28.63h4.25v4.32h.3c.52-1.42,1.47-2.57,2.83-3.45,1.37-.88,2.91-1.32,4.62-1.32.32,0,.73,0,1.21.02.48.01.85.03,1.1.06v4.47c-.15-.04-.49-.09-1.03-.17-.52-.09-1.07-.13-1.66-.13-1.39,0-2.63.29-3.73.88-1.08.57-1.94,1.37-2.57,2.39-.62,1.01-.93,2.16-.93,3.45v18.12h-4.4Z"/>
  <path class="cls-2" d="M33.7,103.14c0,4.03-.73,7.5-2.18,10.44-1.45,2.93-3.45,5.19-5.98,6.78-2.53,1.59-5.43,2.39-8.69,2.39s-6.15-.8-8.69-2.39c-2.53-1.59-4.53-3.85-5.98-6.78-1.45-2.93-2.18-6.41-2.18-10.44s.73-7.5,2.18-10.44c1.45-2.93,3.45-5.19,5.98-6.78,2.53-1.59,5.43-2.39,8.69-2.39s6.15.8,8.69,2.39c2.53,1.59,4.53,3.85,5.98,6.78,1.45,2.93,2.18,6.41,2.18,10.44ZM29.22,103.14c0-3.31-.55-6.09-1.66-8.37-1.09-2.27-2.58-3.99-4.45-5.16-1.86-1.17-3.95-1.75-6.26-1.75s-4.4.58-6.28,1.75c-1.86,1.17-3.35,2.89-4.45,5.16-1.09,2.27-1.64,5.06-1.64,8.37s.55,6.1,1.64,8.37c1.11,2.27,2.59,3.99,4.45,5.16,1.88,1.17,3.97,1.75,6.28,1.75s4.4-.58,6.26-1.75c1.88-1.17,3.36-2.89,4.45-5.16,1.11-2.27,1.66-5.06,1.66-8.37Z"/>
  <path class="cls-11" d="M128.15,158.84c-.32,0-.61-.03-.87-.08-.25-.05-.43-.1-.53-.15l.49-1.69c.46.12.88.16,1.23.13.36-.03.67-.19.95-.48.28-.28.54-.74.77-1.37l.36-.97-4.6-12.51h2.07l3.44,9.92h.13l3.44-9.92h2.07l-5.28,14.26c-.24.64-.53,1.18-.88,1.6-.35.43-.76.74-1.22.95-.46.2-.98.31-1.56.31Z"/>
  <path class="cls-11" d="M113.45,154.17v-16.6h1.91v6.13h.16c.14-.22.33-.49.58-.83.25-.34.62-.64,1.09-.91.47-.27,1.12-.4,1.93-.4,1.05,0,1.97.26,2.77.79.8.52,1.42,1.27,1.87,2.23.45.96.67,2.1.67,3.4s-.22,2.46-.67,3.43c-.45.96-1.07,1.71-1.86,2.24-.79.52-1.71.79-2.75.79-.8,0-1.44-.13-1.92-.4-.48-.27-.85-.58-1.11-.92-.26-.35-.46-.63-.6-.86h-.23v1.91h-1.85ZM115.33,147.95c0,.94.14,1.77.41,2.49.28.71.68,1.27,1.21,1.68.53.4,1.18.6,1.94.6s1.47-.21,2-.63c.54-.43.95-1,1.22-1.72.28-.72.41-1.53.41-2.41s-.14-1.66-.4-2.37c-.26-.71-.67-1.27-1.21-1.68-.53-.42-1.21-.62-2.02-.62s-1.43.2-1.96.59c-.53.39-.93.93-1.2,1.64-.27.7-.4,1.51-.4,2.44Z"/>
  <path class="cls-6" d="M42,142c0-3.87,3.08-7,6.89-7h48.22c3.8,0,6.89,3.13,6.89,7v14c0,3.87-3.08,7-6.89,7h-48.22c-3.8,0-6.89-3.13-6.89-7v-14Z"/>
  <path class="cls-13" d="M97.11,161.83v1.17h-48.22v-1.17h48.22ZM102.85,156v-14c0-3.22-2.57-5.83-5.74-5.83h-48.22c-3.17,0-5.74,2.61-5.74,5.83v14c0,3.22,2.57,5.83,5.74,5.83v1.17h-.35c-3.64-.2-6.53-3.26-6.53-7v-14c0-3.87,3.08-7,6.89-7h48.22c3.8,0,6.89,3.13,6.89,7v14c0,3.74-2.89,6.8-6.53,6.99h-.35s0-1.16,0-1.16c3.17,0,5.74-2.61,5.74-5.83Z"/>
  <path class="cls-14" d="M89.01,150.43l-1.2-3.29c-.06-.15-.12-.32-.18-.52-.06-.2-.13-.42-.19-.65-.06.23-.12.45-.18.66-.06.2-.13.38-.18.53l-1.2,3.28h3.15ZM92.26,154.17h-1.42c-.16,0-.29-.04-.39-.12-.1-.08-.18-.18-.23-.3l-.74-2.02h-4.1l-.74,2.02c-.04.1-.11.2-.21.29-.1.09-.24.13-.39.13h-1.44l3.9-9.9h1.88l3.89,9.9Z"/>
  <path class="cls-15" d="M82.08,145.78h-2.98v8.39h-1.84v-8.39h-2.98v-1.51h7.81v1.51Z"/>
  <path class="cls-16" d="M67.77,145.74v2.75h3.46v1.42h-3.46v2.8h4.39v1.47h-6.24v-9.9h6.24v1.46h-4.39Z"/>
  <path class="cls-17" d="M59.24,152.73c.34,0,.63-.04.86-.12.23-.08.42-.19.55-.33.14-.14.24-.3.3-.48.06-.18.1-.38.1-.58s-.03-.41-.1-.57c-.07-.17-.18-.32-.32-.44-.15-.12-.34-.22-.57-.28-.23-.06-.5-.1-.83-.1h-1.86v2.9h1.86ZM57.38,145.7v2.86h1.47c.63,0,1.1-.11,1.42-.34.32-.23.49-.59.49-1.09s-.15-.88-.44-1.1c-.29-.22-.75-.33-1.37-.33h-1.57ZM58.95,144.27c.65,0,1.2.06,1.66.18.46.12.84.3,1.13.53.3.23.51.5.65.83.14.32.21.69.21,1.1,0,.23-.03.46-.1.67-.07.21-.18.41-.32.6-.14.18-.32.35-.55.5-.22.15-.48.28-.79.38,1.36.31,2.04,1.04,2.04,2.2,0,.42-.08.81-.24,1.16-.16.36-.39.66-.7.92-.31.26-.68.46-1.13.6-.45.15-.96.22-1.53.22h-3.74v-9.9h3.41Z"/>
  <path class="cls-1" d="M299,0h-121v121h121V0Z"/>
  <path class="cls-18" d="M176.63,58.15v-2.09c.2-1.56.48-3.05,1.1-4.57,1.47-3.61,4.26-6.43,7.79-8.07,2.16-1,4.39-1.37,6.81-1.28,6.04.22,11.43,4.04,13.61,9.66h8.1c1.89-4.88,5.18-8.91,9.52-11.82-3.57-2.87-5.89-7.01-6.19-11.56-.13-1.94,0-3.74.5-5.57,1.73-6.18,7.1-10.7,13.51-11.26,5.04-.44,9.76,1.31,13.16,4.99,5.77,6.24,5.46,15.59-.33,21.64.06.28.3.52.57.65,3.53,1.6,6.69,4.05,9.11,7.06.49.21,1.03-.03,1.51-.24l9.69-4.35c-.37-6.02,2.8-11.73,8.19-14.47,4.1-2.08,8.85-2.15,13.05-.26,4.96,2.23,8.43,6.95,9.06,12.35.14,1.18.1,2.23,0,3.38-.42,4.65-3.19,8.82-6.88,11.13-4.36,2.73-9.53,3.08-14.05,1.14-1.32-.56-2.44-1.16-3.5-2.07-.28-.24-.68-.64-1.19-.4l-7.24,3.28-3.75,1.67c.76,6.92-.85,12.42-5.07,17.78l5.75,5.73c3.76-1.17,7.82-1.18,11.44.34,6.78,2.84,10.9,9.39,10.15,16.81-.61,6.1-4.82,11.16-10.66,12.94-1.6.49-3.1.65-4.78.68-2.68.04-5.18-.48-7.59-1.72-7.72-4-11.15-13.24-7.28-21.3l-6.83-6.75c-3.28,1.04-5.71,1.47-9.08,1.31-10.9-.52-20.39-8.88-21.94-19.78l-6.41-.02c-.41,0-.66.23-.81.57-3.37,7.71-12.9,10.79-20.37,7.17-4.49-2.18-7.63-6.31-8.47-11.22-.09-.55-.02-1.07-.21-1.51ZM241.33,27.08c0-4.59-3.72-8.31-8.31-8.31s-8.31,3.72-8.31,8.31,3.72,8.31,8.31,8.31,8.31-3.72,8.31-8.31ZM288.4,40.67c0-4.52-3.66-8.18-8.18-8.18s-8.18,3.66-8.18,8.18,3.66,8.18,8.18,8.18,8.18-3.66,8.18-8.18ZM251.37,60.16c0-8.54-6.92-15.46-15.46-15.46s-15.46,6.92-15.46,15.46,6.92,15.46,15.46,15.46,15.46-6.92,15.46-15.46ZM200.17,57.39c0-4.57-3.71-8.28-8.28-8.28s-8.28,3.71-8.28,8.28,3.71,8.28,8.28,8.28,8.28-3.71,8.28-8.28ZM274.06,95.67c0-4.92-3.99-8.91-8.91-8.91s-8.91,3.99-8.91,8.91,3.99,8.91,8.91,8.91,8.91-3.99,8.91-8.91Z"/>
  <g>
    <path class="cls-10" d="M185.69,153.34v-9.8h2.15c1.08,0,1.96-.88,1.96-1.96,0-.21-.03-.43-.1-.63h-4.01v-.62c0-1.02.28-1.77.84-2.25.56-.48,1.33-.72,2.32-.72.26,0,.85.06.85.06,0,0,1.27-1.49.43-2.01-.46-.25-.98-.35-1.49-.29-.13,0-.28,0-.46,0-.66,0-1.31.1-1.94.29-.63.16-1.23.46-1.74.86-.51.42-.91.95-1.17,1.55-.31.74-.45,1.54-.43,2.34v13.15h2.79ZM147.68,152.82v-1.04c.46.56,1.04,1.02,1.7,1.33.78.37,1.63.56,2.49.54.86,0,1.71-.15,2.5-.48.75-.31,1.43-.77,2-1.34.58-.59,1.03-1.29,1.33-2.06.33-.84.49-1.73.48-2.63,0-.9-.16-1.78-.49-2.62-.31-.78-.78-1.48-1.37-2.07-.59-.58-1.29-1.04-2.06-1.36-.82-.34-1.7-.5-2.59-.49-.95-.01-1.89.15-2.79.47-.42.16-.83.36-1.21.6v-.97c-.08-.03-.25-.09-.49-.16-.26-.08-.54-.11-.81-.11-.39-.02-.79.08-1.11.31-.28.25-.43.62-.39,1v5.66c0,.1,0,.21,0,.31v10.56h2.81v-5.45h0ZM147.93,148.72c-.13-.34-.22-.7-.26-1.07v-1.09c.04-.37.12-.72.26-1.07.35-.94,1.07-1.68,2-2.06.49-.2,1.01-.3,1.54-.3.53,0,1.06.1,1.54.31.46.2.87.48,1.21.84.34.36.61.79.78,1.26.18.5.28,1.03.27,1.57,0,.55-.09,1.09-.27,1.6-.17.48-.43.91-.78,1.28-.34.36-.75.65-1.21.85-.49.21-1.01.31-1.54.31-.54,0-1.07-.1-1.57-.31-.45-.2-.86-.49-1.2-.85-.34-.38-.6-.81-.78-1.28ZM164.02,141.22v12.12h-2.81v-11.08c-.03-.38.11-.75.39-1,.33-.22.72-.33,1.11-.31.28,0,.55.03.81.11.25.07.41.13.49.16ZM171.13,151.62c-.62.75-1.07,1.32-1.37,1.71h-3.31c.08-.12.28-.37.59-.75.31-.39.7-.86,1.15-1.41.45-.55.95-1.16,1.51-1.83.55-.67,1.11-1.34,1.69-2.01-.77-.84-1.44-1.53-1.99-2.09-.55-.55-1-1.02-1.34-1.39-.29-.3-.54-.63-.76-.99-.16-.25-.24-.54-.25-.84,0-.28.12-.55.32-.75.21-.22.57-.33,1.06-.33.27,0,.53.03.79.11.15.04.3.1.44.16.07.08.22.26.46.53.24.27.53.6.86.97.34.38.7.79,1.07,1.23.38.44.76.87,1.14,1.28.31-.39.63-.78.95-1.16.32-.38.61-.73.88-1.05.26-.32.49-.59.68-.81.19-.22.31-.37.36-.43.23-.25.49-.46.79-.63.29-.15.61-.22.94-.21.41-.01.82.09,1.18.28.23.11.44.27.62.46-.13.15-.35.4-.65.75-.3.35-.66.77-1.07,1.26-.41.49-.87,1.02-1.37,1.62s-1.02,1.2-1.54,1.83c.59.69,1.18,1.37,1.75,2.02.58.66,1.11,1.27,1.59,1.83.49.56.9,1.04,1.26,1.46s.6.71.73.89h-3.48c-.38-.44-.87-1.02-1.47-1.71-.6-.7-1.32-1.52-2.16-2.46-.74.89-1.42,1.71-2.04,2.46ZM194.75,141.22v12.12h-2.81v-11.08c-.03-.38.11-.75.39-1,.33-.22.72-.33,1.11-.31.28,0,.55.03.81.11.25.07.41.13.49.16ZM209.33,153.34v-2.47h-8.34c.28-.25.62-.54,1.01-.89.39-.35.81-.72,1.26-1.12.44-.4.9-.82,1.38-1.26.48-.44.94-.86,1.38-1.27.44-.41.86-.8,1.25-1.17.39-.37.71-.69.97-.95.32-.3.61-.65.84-1.02.15-.27.22-.57.22-.88.03-.39-.13-.77-.42-1.02-.33-.24-.73-.36-1.13-.33h-10.04c-.08.17-.14.34-.2.52-.08.25-.13.52-.12.79-.02.35.1.69.33.94.22.21.6.32,1.15.32h6.54c-.44.44-1.01.99-1.7,1.64s-1.41,1.32-2.17,2.01c-.76.69-1.5,1.37-2.23,2.04s-1.37,1.23-1.91,1.69v2.44h11.94ZM224.24,150.87v2.47h-11.94v-2.44c.54-.46,1.18-1.02,1.91-1.69.73-.67,1.48-1.34,2.23-2.04.76-.69,1.48-1.36,2.17-2.01.69-.65,1.26-1.2,1.7-1.64h-6.54c-.54,0-.93-.11-1.15-.32-.24-.25-.36-.59-.33-.94,0-.27.04-.53.12-.79.06-.18.12-.35.2-.52h10.04c.41-.02.81.1,1.14.33.29.26.45.64.42,1.02,0,.31-.07.61-.22.88-.23.38-.52.72-.84,1.02-.26.26-.59.58-.97.95-.39.37-.8.76-1.25,1.17-.44.41-.9.83-1.38,1.27s-.94.86-1.38,1.26c-.44.4-.86.78-1.26,1.12s-.73.64-1.01.89h8.34Z"/>
    <path class="cls-19" d="M228.66,153.12c.84,0,1.52-.7,1.51-1.54,0-.84-.7-1.52-1.54-1.51-.84,0-1.52.7-1.51,1.54,0,.4.16.78.45,1.06.29.29.68.46,1.1.45Z"/>
    <path class="cls-19" d="M228.66,148.49c.84,0,1.52-.7,1.51-1.54s-.7-1.52-1.54-1.51c-.84,0-1.52.7-1.51,1.54,0,.4.16.78.45,1.06.29.29.68.46,1.1.45Z"/>
    <path class="cls-19" d="M228.66,143.87c.86,0,1.55-.7,1.54-1.56,0-.41-.16-.79-.45-1.08-.61-.6-1.59-.59-2.19.02-.59.6-.59,1.57,0,2.17.29.29.68.46,1.1.45Z"/>
  </g>
</svg>